# Blender 4.3.2
# www.blender.org
mtllib heart.mtl
o Circle
v 0.039429 -1.347023 3.363433
v 0.186814 -2.281218 2.634968
v 0.066496 -2.513993 1.635865
v 0.018553 -2.251318 0.766636
v 0.009231 -1.852794 0.014809
v -0.105749 3.087895 0.007725
v -0.095632 2.652967 1.385456
v -0.071143 1.600195 2.501037
v -0.035396 0.064564 3.372729
v 0.039429 -1.347023 -3.333816
v 0.186814 -2.281218 -2.605351
v 0.066496 -2.513993 -1.606248
v 0.018553 -2.251318 -0.737018
v -0.095632 2.652967 -1.359380
v -0.071143 1.600194 -2.471420
v -0.035396 0.064564 -3.343112
v 0.731465 -1.017543 2.247934
v 0.816766 -1.637286 1.767049
v 0.749640 -1.800786 1.106155
v 0.712990 -1.623999 0.520971
v 0.707524 -1.390040 0.014590
v 0.630242 1.930545 0.010216
v 0.636798 1.648724 0.926798
v 0.653291 0.939683 1.682665
v 0.676900 -0.074400 2.246599
v 0.731465 -1.017543 -2.218754
v 0.816766 -1.637286 -1.737869
v 0.749640 -1.800786 -1.076975
v 0.712990 -1.623999 -0.491790
v 0.636798 1.648724 -0.900371
v 0.653291 0.939683 -1.653485
v 0.676900 -0.074400 -2.217419
v -0.548661 -1.634672 1.706040
v -0.631364 -1.036357 2.170365
v -0.613823 -1.792263 1.067943
v -0.649070 -1.621659 0.503232
v -0.654367 -1.394935 0.014574
v -0.722616 1.537365 0.895160
v -0.728950 1.809630 0.010343
v -0.706700 0.853138 1.624447
v -0.683904 -0.126012 2.169287
v -0.548662 -1.634672 -1.676891
v -0.631364 -1.036357 -2.141216
v -0.613824 -1.792263 -1.038794
v -0.649070 -1.621659 -0.474083
v -0.706700 0.853138 -1.595299
v -0.722617 1.537364 -0.868658
v -0.683904 -0.126012 -2.140138
v 0.130712 -1.894282 3.062063
v 0.144178 -2.476098 2.138425
v 0.028090 -2.437349 1.179143
v 0.012484 -1.991527 0.383416
v -0.102949 2.967540 0.720513
v -0.085070 2.198924 1.967130
v -0.053890 0.858661 3.007188
v -0.012692 -0.684145 3.484804
v 0.130712 -1.894282 -3.032445
v 0.144178 -2.476098 -2.108808
v 0.028090 -2.437349 -1.149526
v 0.012484 -1.991527 -0.353799
v -0.085070 2.198924 -1.937956
v -0.053890 0.858661 -2.977571
v -0.012692 -0.684145 -3.455187
v -0.102949 2.967540 -0.701077
v 0.825857 -1.243218 1.770807
v 0.833686 -1.581226 1.246470
v 0.772575 -1.563403 0.694634
v 0.760963 -1.327241 0.229899
v 0.694133 1.543790 0.419425
v 0.704397 1.102547 1.142959
v 0.722286 0.333699 1.737499
v 0.748959 -0.548166 2.005603
v 0.825857 -1.243218 -1.741748
v 0.833686 -1.581226 -1.217410
v 0.772575 -1.563403 -0.665574
v 0.760963 -1.327241 -0.200839
v 0.704397 1.102547 -1.114416
v 0.722286 0.333699 -1.708439
v 0.748959 -0.548166 -1.976544
v 0.694133 1.543790 -0.396014
v 0.348138 2.330226 -1.209552
v 0.369991 1.390795 -2.202639
v 0.369991 1.390796 2.232112
v 0.348138 2.330226 1.235798
v 0.401803 0.024225 -2.976198
v 0.401803 0.024225 3.005672
v 0.469344 -1.233991 -2.969309
v 0.469344 -1.233991 2.998783
v 0.598276 -2.065862 2.350548
v 0.339158 2.716274 0.008490
v 0.598276 -2.065862 -2.321074
v 0.493487 -2.274822 1.461230
v 0.493487 -2.274822 -1.431757
v 0.449898 -2.040450 0.685627
v 0.449898 -2.040450 -0.656153
v 0.441730 -1.691208 0.014737
v -0.637956 -1.254683 1.704883
v -0.630422 -1.579980 1.200143
v -0.689297 -1.562780 0.669007
v -0.700447 -1.335273 0.221773
v -0.764765 1.427885 0.404234
v -0.754886 1.003183 1.100565
v -0.737669 0.263153 1.672842
v -0.712026 -0.585691 1.930957
v -0.637955 -1.254683 -1.675853
v -0.630422 -1.579980 -1.171112
v -0.689297 -1.562780 -0.639976
v -0.700447 -1.335273 -0.192742
v -0.754886 1.003183 -1.072029
v -0.737669 0.263153 -1.643811
v -0.712026 -0.585691 -1.901926
v -0.764766 1.427885 -0.380642
v -0.479051 1.330102 -2.158550
v -0.500469 2.250822 -1.185284
v -0.500469 2.250822 1.211573
v -0.479051 1.330102 2.188000
v -0.447868 -0.009449 -2.916930
v -0.447868 -0.009449 2.946380
v -0.381713 -1.242679 -2.910105
v -0.381713 -1.242679 2.939555
v -0.255212 -2.058075 2.304134
v -0.509272 2.629291 0.008598
v -0.255212 -2.058075 -2.274684
v -0.358050 -2.262807 1.432411
v -0.358050 -2.262807 -1.402961
v -0.400728 -2.033101 0.672253
v -0.400728 -2.033101 -0.642803
v -0.408742 -1.690478 0.014725
v -0.495193 1.833313 -1.676474
v 0.910554 -0.405949 0.014145
v 0.363416 1.904748 -1.710891
v 0.363416 1.904748 1.739934
v 0.390954 0.721027 -2.628826
v 0.390954 0.721027 2.658289
v 0.427667 -0.641240 -3.050025
v 0.427667 -0.641240 3.079488
v 0.553745 -1.710126 2.706951
v 0.347624 2.583626 -0.617526
v 0.553745 -1.710126 -2.677488
v 0.565649 -2.224443 1.891786
v 0.565649 -2.224443 -1.862323
v 0.463710 -2.190693 1.044382
v 0.463710 -2.190693 -1.014919
v 0.449641 -1.799048 0.340707
v 0.449640 -1.799048 -0.311244
v 0.347624 2.583626 0.638017
v -0.842756 -0.457087 0.014144
v -0.495192 1.833313 1.705504
v -0.468204 0.673188 -2.576118
v -0.468203 0.673188 2.605558
v -0.432232 -0.661932 -2.988940
v -0.432232 -0.661932 3.018379
v -0.308650 -1.709507 2.653243
v -0.510669 2.498655 -0.604934
v -0.308650 -1.709507 -2.623804
v -0.296984 -2.213557 1.854311
v -0.296984 -2.213557 -1.824872
v -0.396908 -2.180466 1.023805
v -0.396908 -2.180466 -0.994365
v -0.410688 -1.796565 0.334184
v -0.410688 -1.796565 -0.304745
v -0.510669 2.498655 0.625580
vn -0.7217 0.5381 -0.4354
vn -0.7288 0.4460 -0.5196
vn -0.9695 0.1971 -0.1458
vn -0.9580 0.2133 -0.1916
vn 0.9993 -0.0233 0.0300
vn 0.9500 -0.2904 -0.1146
vn 0.9193 -0.3412 -0.1963
vn 0.7616 -0.6481 -0.0000
vn 0.9193 -0.3411 0.1963
vn 0.9500 -0.2904 0.1146
vn 0.9993 -0.0233 -0.0300
vn 0.9840 0.0513 -0.1705
vn 0.9862 0.0748 -0.1479
vn 0.9837 0.1238 -0.1307
vn 0.9849 0.1533 -0.0801
vn 0.9866 0.1630 -0.0000
vn 0.9850 0.1534 0.0796
vn 0.9837 0.1238 0.1305
vn 0.9862 0.0748 0.1479
vn 0.9840 0.0513 0.1704
vn 0.6090 0.5524 -0.5692
vn 0.6379 0.5967 -0.4869
vn 0.9439 0.2150 -0.2505
vn 0.9283 0.2632 -0.2627
vn 0.6164 0.6261 0.4775
vn 0.6326 0.5236 0.5707
vn 0.9462 0.2740 0.1723
vn 0.9301 0.2942 0.2201
vn 0.6229 0.3390 -0.7050
vn 0.6336 0.4462 -0.6321
vn 0.9490 0.1339 -0.2853
vn 0.9331 0.1720 -0.3159
vn 0.6103 0.4388 0.6595
vn 0.6428 0.3498 0.6815
vn 0.9448 0.2092 0.2520
vn 0.9288 0.2192 0.2989
vn 0.6543 -0.0567 -0.7541
vn 0.6644 0.1303 -0.7359
vn 0.9580 -0.0001 -0.2867
vn 0.9420 0.0206 -0.3349
vn 0.6450 0.1090 0.7563
vn 0.6793 -0.0802 0.7295
vn 0.9487 0.1164 0.2939
vn 0.9406 0.0733 0.3314
vn 0.6630 -0.2732 0.6970
vn 0.6738 -0.5014 0.5427
vn 0.9632 -0.0248 0.2676
vn 0.9463 -0.0295 0.3219
vn 0.6254 0.7176 -0.3066
vn 0.6572 0.7391 -0.1477
vn 0.9489 0.2893 -0.1262
vn 0.9330 0.3312 -0.1410
vn 0.6543 -0.4928 -0.5736
vn 0.6860 -0.2879 -0.6682
vn 0.9675 -0.0925 -0.2352
vn 0.9565 -0.1378 -0.2571
vn 0.5804 -0.7737 0.2538
vn 0.5068 -0.8619 -0.0133
vn 0.8821 -0.4617 -0.0938
vn 0.9224 -0.3805 0.0659
vn 0.4944 -0.8690 -0.0188
vn 0.5932 -0.7730 -0.2250
vn 0.9184 -0.3955 0.0127
vn 0.9053 -0.4123 -0.1028
vn 0.4218 -0.8877 -0.1844
vn 0.3591 -0.8476 -0.3906
vn 0.8029 -0.5382 -0.2563
vn 0.8072 -0.5648 -0.1716
vn 0.3500 -0.8592 0.3733
vn 0.4325 -0.8773 0.2080
vn 0.7967 -0.5416 0.2681
vn 0.8258 -0.5568 0.0890
vn 0.2852 -0.7912 -0.5409
vn 0.3527 -0.8747 -0.3323
vn 0.7931 -0.5723 -0.2086
vn 0.6838 -0.5976 -0.4187
vn 0.3335 -0.8926 0.3034
vn 0.2916 -0.7836 0.5486
vn 0.6882 -0.5616 0.4593
vn 0.7497 -0.6617 -0.0069
vn 0.6358 0.7615 0.1261
vn 0.6477 0.6914 0.3200
vn 0.9505 0.3075 0.0438
vn 0.9360 0.3469 0.0605
vn -0.9651 -0.2264 0.1315
vn -0.9877 -0.1356 0.0776
vn -0.9939 0.0036 0.1104
vn -0.9922 0.0610 0.1087
vn -0.9941 0.0855 0.0663
vn -0.9956 0.0934 -0.0000
vn -0.9941 0.0854 -0.0667
vn -0.9922 0.0610 -0.1089
vn -0.9939 0.0036 -0.1105
vn -0.9877 -0.1356 -0.0776
vn -0.9651 -0.2264 -0.1315
vn -0.9843 -0.1421 -0.1045
vn -0.9477 -0.2934 0.1257
vn -0.7914 -0.6113 -0.0000
vn -0.9476 -0.2935 -0.1257
vn -0.9843 -0.1420 0.1045
vn -0.7117 0.4741 0.5183
vn -0.7374 0.5119 0.4406
vn -0.9653 0.1425 0.2189
vn -0.9556 0.1874 0.2274
vn -0.7072 0.3709 -0.6019
vn -0.7298 0.2879 -0.6201
vn -0.9658 0.1426 -0.2164
vn -0.9542 0.1491 -0.2594
vn -0.7139 0.2790 0.6422
vn -0.7262 0.3760 0.5755
vn -0.9662 0.0710 0.2479
vn -0.9556 0.1083 0.2740
vn -0.7224 0.0587 -0.6890
vn -0.7382 -0.1534 -0.6569
vn -0.9683 -0.0426 -0.2462
vn -0.9571 0.0090 -0.2895
vn -0.7196 -0.1794 0.6708
vn -0.7394 0.0777 0.6688
vn -0.9674 -0.0674 0.2442
vn -0.9533 -0.1205 0.2771
vn -0.6546 -0.5827 0.4816
vn -0.7026 -0.4487 0.5523
vn -0.9304 -0.3267 0.1664
vn -0.9158 -0.3455 0.2048
vn -0.7459 0.6561 -0.1144
vn -0.7506 0.5929 -0.2917
vn -0.9740 0.2240 -0.0339
vn -0.9646 0.2584 -0.0528
vn -0.6901 -0.4340 -0.5791
vn -0.6677 -0.5932 -0.4497
vn -0.9491 -0.2224 -0.2230
vn -0.9316 -0.2845 -0.2261
vn -0.5623 -0.8081 0.1757
vn -0.6247 -0.7183 0.3063
vn -0.9215 -0.3728 0.1086
vn -0.9157 -0.2615 0.3050
vn -0.6118 -0.7171 -0.3340
vn -0.5750 -0.8044 -0.1495
vn -0.9337 -0.3141 -0.1718
vn -0.9157 -0.3458 -0.2046
vn -0.3670 -0.8593 -0.3562
vn -0.4778 -0.8689 -0.1297
vn -0.8730 -0.4755 -0.1084
vn -0.8521 -0.5230 -0.0210
vn -0.4674 -0.8774 0.1079
vn -0.3761 -0.8479 0.3737
vn -0.8335 -0.5127 0.2058
vn -0.8736 -0.4864 0.0149
vn -0.3455 -0.8899 -0.2976
vn -0.2992 -0.7860 -0.5411
vn -0.7123 -0.5528 -0.4325
vn -0.7690 -0.6391 0.0130
vn -0.2932 -0.7935 0.5333
vn -0.3643 -0.8726 0.3252
vn -0.8102 -0.5548 0.1892
vn -0.7086 -0.5878 0.3904
vn -0.7344 0.6204 0.2752
vn -0.7611 0.6349 0.1327
vn -0.9718 0.2073 0.1126
vn -0.9617 0.2459 0.1207
vn -0.7373 0.5108 -0.4421
vn -0.7116 0.4740 -0.5186
vn -0.9556 0.1874 -0.2276
vn -0.9652 0.1420 -0.2197
vn 0.9990 -0.0297 0.0340
vn 0.9764 -0.1834 -0.1141
vn 0.9753 -0.1862 -0.1190
vn 0.9871 -0.1603 -0.0000
vn 0.9753 -0.1861 0.1189
vn 0.9764 -0.1834 0.1141
vn 0.9990 -0.0297 -0.0340
vn 0.9930 0.0807 -0.0864
vn 0.9948 0.0559 -0.0847
vn 0.9940 0.0804 -0.0741
vn 0.9938 0.1003 -0.0474
vn 0.9939 0.1103 -0.0000
vn 0.9938 0.1005 0.0472
vn 0.9940 0.0804 0.0741
vn 0.9948 0.0558 0.0847
vn 0.9930 0.0807 0.0863
vn 0.6324 0.5235 -0.5710
vn 0.6163 0.6250 -0.4792
vn 0.9300 0.2937 -0.2209
vn 0.9462 0.2739 -0.1725
vn 0.6380 0.5979 0.4853
vn 0.6091 0.5526 0.5689
vn 0.9283 0.2633 0.2625
vn 0.9441 0.2156 0.2495
vn 0.6426 0.3498 -0.6817
vn 0.6102 0.4388 -0.6596
vn 0.9287 0.2193 -0.2990
vn 0.9448 0.2093 -0.2521
vn 0.6337 0.4461 0.6320
vn 0.6231 0.3390 0.7049
vn 0.9331 0.1720 0.3158
vn 0.9491 0.1339 0.2852
vn 0.6791 -0.0802 -0.7296
vn 0.6449 0.1090 -0.7565
vn 0.9406 0.0733 -0.3315
vn 0.9487 0.1164 -0.2940
vn 0.6645 0.1303 0.7358
vn 0.6544 -0.0566 0.7540
vn 0.9421 0.0207 0.3348
vn 0.9580 -0.0001 0.2866
vn 0.6861 -0.2879 0.6681
vn 0.6544 -0.4927 0.5736
vn 0.9565 -0.1377 0.2570
vn 0.9676 -0.0924 0.2351
vn 0.6478 0.6901 -0.3226
vn 0.6360 0.7612 -0.1267
vn 0.9360 0.3466 -0.0608
vn 0.9506 0.3074 -0.0441
vn 0.6737 -0.5014 -0.5428
vn 0.6629 -0.2733 -0.6971
vn 0.9463 -0.0296 -0.3220
vn 0.9632 -0.0249 -0.2677
vn 0.5932 -0.7730 0.2250
vn 0.4944 -0.8690 0.0188
vn 0.9053 -0.4122 0.1028
vn 0.9184 -0.3955 -0.0127
vn 0.5068 -0.8619 0.0134
vn 0.5804 -0.7738 -0.2539
vn 0.9224 -0.3805 -0.0659
vn 0.8821 -0.4616 0.0938
vn 0.4324 -0.8774 -0.2080
vn 0.3499 -0.8592 -0.3733
vn 0.8258 -0.5569 -0.0890
vn 0.7966 -0.5417 -0.2681
vn 0.3592 -0.8476 0.3906
vn 0.4219 -0.8877 0.1844
vn 0.8073 -0.5647 0.1716
vn 0.8030 -0.5381 0.2563
vn 0.2914 -0.7836 -0.5487
vn 0.3334 -0.8926 -0.3034
vn 0.7498 -0.6617 0.0069
vn 0.6879 -0.5618 -0.4594
vn 0.3528 -0.8747 0.3323
vn 0.2854 -0.7912 0.5409
vn 0.6841 -0.5974 0.4186
vn 0.7932 -0.5722 0.2085
vn 0.6570 0.7395 0.1470
vn 0.6253 0.7187 0.3041
vn 0.9329 0.3318 0.1398
vn 0.9488 0.2897 0.1257
vn -0.9907 -0.1208 0.0630
vn -0.9898 -0.1295 0.0588
vn -0.9977 -0.0096 0.0674
vn -0.9983 0.0192 0.0549
vn -0.9988 0.0341 0.0350
vn -0.9991 0.0413 -0.0000
vn -0.9988 0.0340 -0.0351
vn -0.9983 0.0192 -0.0549
vn -0.9977 -0.0096 -0.0674
vn -0.9898 -0.1295 -0.0588
vn -0.9907 -0.1208 -0.0631
vn -0.9914 -0.0740 -0.1075
vn -0.9826 -0.1744 0.0642
vn -0.9871 -0.1600 -0.0000
vn -0.9826 -0.1744 -0.0642
vn -0.9915 -0.0739 0.1075
vn -0.7289 0.4461 0.5193
vn -0.7219 0.5391 0.4339
vn -0.9581 0.2137 0.1908
vn -0.9695 0.1972 0.1456
vn -0.7261 0.3760 -0.5756
vn -0.7138 0.2791 -0.6424
vn -0.9556 0.1084 -0.2741
vn -0.9662 0.0711 -0.2480
vn -0.7299 0.2878 0.6200
vn -0.7074 0.3708 0.6018
vn -0.9542 0.1491 0.2593
vn -0.9658 0.1426 0.2164
vn -0.7393 0.0777 -0.6689
vn -0.7195 -0.1794 -0.6709
vn -0.9532 -0.1205 -0.2772
vn -0.9674 -0.0674 -0.2443
vn -0.7383 -0.1534 0.6568
vn -0.7225 0.0587 0.6888
vn -0.9572 0.0090 0.2894
vn -0.9683 -0.0425 0.2462
vn -0.6678 -0.5931 0.4496
vn -0.6903 -0.4340 0.5790
vn -0.9316 -0.2845 0.2261
vn -0.9491 -0.2224 0.2229
vn -0.7612 0.6346 -0.1334
vn -0.7345 0.6193 -0.2774
vn -0.9617 0.2454 -0.1217
vn -0.9718 0.2069 -0.1130
vn -0.7025 -0.4487 -0.5524
vn -0.6545 -0.5828 -0.4817
vn -0.9158 -0.3455 -0.2048
vn -0.9304 -0.3267 -0.1664
vn -0.5750 -0.8044 0.1495
vn -0.6119 -0.7170 0.3339
vn -0.9158 -0.3457 0.2045
vn -0.9337 -0.3140 0.1718
vn -0.6246 -0.7183 -0.3063
vn -0.5622 -0.8081 -0.1757
vn -0.9157 -0.2617 -0.3050
vn -0.9215 -0.3729 -0.1086
vn -0.3759 -0.8479 -0.3737
vn -0.4674 -0.8774 -0.1079
vn -0.8736 -0.4864 -0.0149
vn -0.8335 -0.5128 -0.2059
vn -0.4778 -0.8688 0.1296
vn -0.3672 -0.8593 0.3562
vn -0.8521 -0.5229 0.0210
vn -0.8731 -0.4754 0.1083
vn -0.3642 -0.8727 -0.3252
vn -0.2930 -0.7936 -0.5333
vn -0.7084 -0.5880 -0.3905
vn -0.8101 -0.5550 -0.1892
vn -0.2994 -0.7859 0.5411
vn -0.3456 -0.8899 0.2976
vn -0.7690 -0.6391 -0.0130
vn -0.7126 -0.5526 0.4324
vn -0.7506 0.5941 0.2893
vn -0.7458 0.6564 0.1138
vn -0.9645 0.2586 0.0526
vn -0.9740 0.2242 0.0336
s 0
usemtl pink
f 61//1 114//1 14//1
f 15//2 129//2 61//2
f 129//3 46//3 109//3
f 129//4 47//4 114//4
f 66//5 65//5 18//5
f 67//6 66//6 19//6
f 68//7 67//7 20//7
f 76//8 68//8 21//8
f 75//9 76//9 29//9
f 74//10 75//10 28//10
f 73//11 74//11 27//11
f 79//12 73//12 26//12
f 78//13 79//13 32//13
f 77//14 78//14 31//14
f 80//15 77//15 30//15
f 69//16 80//16 22//16
f 70//17 69//17 23//17
f 71//18 70//18 24//18
f 72//19 71//19 25//19
f 65//20 72//20 17//20
f 15//21 131//21 82//21
f 61//22 81//22 131//22
f 131//23 30//23 77//23
f 131//24 31//24 82//24
f 54//25 84//25 7//25
f 8//26 132//26 54//26
f 132//27 24//27 70//27
f 132//28 23//28 84//28
f 62//29 85//29 16//29
f 15//30 133//30 62//30
f 133//31 31//31 78//31
f 133//32 32//32 85//32
f 8//33 134//33 83//33
f 55//34 86//34 134//34
f 134//35 25//35 71//35
f 134//36 24//36 83//36
f 10//37 135//37 87//37
f 16//38 135//38 63//38
f 135//39 32//39 79//39
f 135//40 26//40 87//40
f 9//41 136//41 86//41
f 1//42 136//42 56//42
f 136//43 17//43 72//43
f 136//44 25//44 86//44
f 49//45 88//45 1//45
f 2//46 137//46 49//46
f 137//47 18//47 65//47
f 137//48 17//48 88//48
f 14//49 138//49 81//49
f 64//50 90//50 138//50
f 138//51 22//51 80//51
f 138//52 30//52 81//52
f 11//53 139//53 91//53
f 57//54 87//54 139//54
f 139//55 26//55 73//55
f 139//56 27//56 91//56
f 50//57 89//57 2//57
f 3//58 140//58 50//58
f 92//59 66//59 140//59
f 140//60 18//60 89//60
f 12//61 141//61 93//61
f 58//62 91//62 141//62
f 141//63 27//63 74//63
f 93//64 74//64 28//64
f 51//65 92//65 3//65
f 4//66 142//66 51//66
f 94//67 67//67 142//67
f 142//68 19//68 92//68
f 13//69 143//69 95//69
f 59//70 93//70 143//70
f 143//71 28//71 75//71
f 95//72 75//72 29//72
f 52//73 94//73 4//73
f 5//74 144//74 52//74
f 96//75 68//75 144//75
f 144//76 20//76 94//76
f 5//77 145//77 96//77
f 60//78 95//78 145//78
f 145//79 29//79 76//79
f 96//80 76//80 21//80
f 53//81 90//81 6//81
f 7//82 146//82 53//82
f 146//83 23//83 69//83
f 146//84 22//84 90//84
f 97//85 98//85 33//85
f 104//86 97//86 34//86
f 103//87 104//87 41//87
f 102//88 103//88 40//88
f 101//89 102//89 38//89
f 112//90 101//90 39//90
f 109//91 112//91 47//91
f 110//92 109//92 46//92
f 111//93 110//93 48//93
f 105//94 111//94 43//94
f 106//95 105//95 42//95
f 107//96 106//96 44//96
f 108//97 107//97 45//97
f 100//98 108//98 37//98
f 99//99 100//99 36//99
f 98//100 99//100 35//100
f 8//101 148//101 116//101
f 54//102 115//102 148//102
f 148//103 38//103 102//103
f 148//104 40//104 116//104
f 15//105 149//105 113//105
f 62//106 117//106 149//106
f 149//107 48//107 110//107
f 149//108 46//108 113//108
f 55//109 118//109 9//109
f 8//110 150//110 55//110
f 150//111 40//111 103//111
f 150//112 41//112 118//112
f 16//113 151//113 117//113
f 63//114 119//114 151//114
f 151//115 43//115 111//115
f 151//116 48//116 117//116
f 56//117 120//117 1//117
f 9//118 152//118 56//118
f 152//119 41//119 104//119
f 152//120 34//120 120//120
f 2//121 153//121 121//121
f 49//122 120//122 153//122
f 153//123 34//123 97//123
f 153//124 33//124 121//124
f 64//125 122//125 6//125
f 14//126 154//126 64//126
f 154//127 47//127 112//127
f 154//128 39//128 122//128
f 57//129 119//129 10//129
f 11//130 155//130 57//130
f 155//131 42//131 105//131
f 155//132 43//132 119//132
f 3//133 156//133 124//133
f 50//134 121//134 156//134
f 156//135 33//135 98//135
f 124//136 98//136 35//136
f 58//137 123//137 11//137
f 12//138 157//138 58//138
f 125//139 106//139 157//139
f 157//140 42//140 123//140
f 4//141 158//141 126//141
f 51//142 124//142 158//142
f 158//143 35//143 99//143
f 126//144 99//144 36//144
f 59//145 125//145 12//145
f 13//146 159//146 59//146
f 127//147 107//147 159//147
f 159//148 44//148 125//148
f 5//149 160//149 128//149
f 52//150 126//150 160//150
f 160//151 36//151 100//151
f 128//152 100//152 37//152
f 60//153 127//153 13//153
f 5//154 161//154 60//154
f 128//155 108//155 161//155
f 161//156 45//156 127//156
f 7//157 162//157 115//157
f 53//158 122//158 162//158
f 162//159 39//159 101//159
f 162//160 38//160 115//160
f 61//161 129//161 114//161
f 15//162 113//162 129//162
f 129//163 113//163 46//163
f 129//164 109//164 47//164
f 66//165 130//165 65//165
f 67//166 130//166 66//166
f 68//167 130//167 67//167
f 76//168 130//168 68//168
f 75//169 130//169 76//169
f 74//170 130//170 75//170
f 73//171 130//171 74//171
f 79//172 130//172 73//172
f 78//173 130//173 79//173
f 77//174 130//174 78//174
f 80//175 130//175 77//175
f 69//176 130//176 80//176
f 70//177 130//177 69//177
f 71//178 130//178 70//178
f 72//179 130//179 71//179
f 65//180 130//180 72//180
f 15//181 61//181 131//181
f 61//182 14//182 81//182
f 131//183 81//183 30//183
f 131//184 77//184 31//184
f 54//185 132//185 84//185
f 8//186 83//186 132//186
f 132//187 83//187 24//187
f 132//188 70//188 23//188
f 62//189 133//189 85//189
f 15//190 82//190 133//190
f 133//191 82//191 31//191
f 133//192 78//192 32//192
f 8//193 55//193 134//193
f 55//194 9//194 86//194
f 134//195 86//195 25//195
f 134//196 71//196 24//196
f 10//197 63//197 135//197
f 16//198 85//198 135//198
f 135//199 85//199 32//199
f 135//200 79//200 26//200
f 9//201 56//201 136//201
f 1//202 88//202 136//202
f 136//203 88//203 17//203
f 136//204 72//204 25//204
f 49//205 137//205 88//205
f 2//206 89//206 137//206
f 137//207 89//207 18//207
f 137//208 65//208 17//208
f 14//209 64//209 138//209
f 64//210 6//210 90//210
f 138//211 90//211 22//211
f 138//212 80//212 30//212
f 11//213 57//213 139//213
f 57//214 10//214 87//214
f 139//215 87//215 26//215
f 139//216 73//216 27//216
f 50//217 140//217 89//217
f 3//218 92//218 140//218
f 92//219 19//219 66//219
f 140//220 66//220 18//220
f 12//221 58//221 141//221
f 58//222 11//222 91//222
f 141//223 91//223 27//223
f 93//224 141//224 74//224
f 51//225 142//225 92//225
f 4//226 94//226 142//226
f 94//227 20//227 67//227
f 142//228 67//228 19//228
f 13//229 59//229 143//229
f 59//230 12//230 93//230
f 143//231 93//231 28//231
f 95//232 143//232 75//232
f 52//233 144//233 94//233
f 5//234 96//234 144//234
f 96//235 21//235 68//235
f 144//236 68//236 20//236
f 5//237 60//237 145//237
f 60//238 13//238 95//238
f 145//239 95//239 29//239
f 96//240 145//240 76//240
f 53//241 146//241 90//241
f 7//242 84//242 146//242
f 146//243 84//243 23//243
f 146//244 69//244 22//244
f 97//245 147//245 98//245
f 104//246 147//246 97//246
f 103//247 147//247 104//247
f 102//248 147//248 103//248
f 101//249 147//249 102//249
f 112//250 147//250 101//250
f 109//251 147//251 112//251
f 110//252 147//252 109//252
f 111//253 147//253 110//253
f 105//254 147//254 111//254
f 106//255 147//255 105//255
f 107//256 147//256 106//256
f 108//257 147//257 107//257
f 100//258 147//258 108//258
f 99//259 147//259 100//259
f 98//260 147//260 99//260
f 8//261 54//261 148//261
f 54//262 7//262 115//262
f 148//263 115//263 38//263
f 148//264 102//264 40//264
f 15//265 62//265 149//265
f 62//266 16//266 117//266
f 149//267 117//267 48//267
f 149//268 110//268 46//268
f 55//269 150//269 118//269
f 8//270 116//270 150//270
f 150//271 116//271 40//271
f 150//272 103//272 41//272
f 16//273 63//273 151//273
f 63//274 10//274 119//274
f 151//275 119//275 43//275
f 151//276 111//276 48//276
f 56//277 152//277 120//277
f 9//278 118//278 152//278
f 152//279 118//279 41//279
f 152//280 104//280 34//280
f 2//281 49//281 153//281
f 49//282 1//282 120//282
f 153//283 120//283 34//283
f 153//284 97//284 33//284
f 64//285 154//285 122//285
f 14//286 114//286 154//286
f 154//287 114//287 47//287
f 154//288 112//288 39//288
f 57//289 155//289 119//289
f 11//290 123//290 155//290
f 155//291 123//291 42//291
f 155//292 105//292 43//292
f 3//293 50//293 156//293
f 50//294 2//294 121//294
f 156//295 121//295 33//295
f 124//296 156//296 98//296
f 58//297 157//297 123//297
f 12//298 125//298 157//298
f 125//299 44//299 106//299
f 157//300 106//300 42//300
f 4//301 51//301 158//301
f 51//302 3//302 124//302
f 158//303 124//303 35//303
f 126//304 158//304 99//304
f 59//305 159//305 125//305
f 13//306 127//306 159//306
f 127//307 45//307 107//307
f 159//308 107//308 44//308
f 5//309 52//309 160//309
f 52//310 4//310 126//310
f 160//311 126//311 36//311
f 128//312 160//312 100//312
f 60//313 161//313 127//313
f 5//314 128//314 161//314
f 128//315 37//315 108//315
f 161//316 108//316 45//316
f 7//317 53//317 162//317
f 53//318 6//318 122//318
f 162//319 122//319 39//319
f 162//320 101//320 38//320
